# Blender v2.78 (sub 0) OBJ File: ''
# www.blender.org
mtllib catears.mtl
o rightshoulder.002_Cube.011
v 0.056497 0.492642 0.077907
v 0.056468 0.492675 0.170607
v 0.001527 0.492682 0.170590
v 0.001556 0.492648 0.077890
v 0.063023 0.492680 0.186059
v 0.063026 0.523707 0.186048
v 0.001530 0.523714 0.186029
v 0.001527 0.492687 0.186040
v 0.041734 0.632995 0.143227
v 0.041740 0.644134 0.124198
v 0.056501 0.644132 0.124203
v 0.056493 0.632993 0.143232
v 0.063066 0.632977 0.098843
v 0.056505 0.632980 0.105182
v 0.056501 0.523669 0.077896
v 0.063065 0.523662 0.062448
v 0.041742 0.523670 0.077892
v 0.041713 0.523704 0.170592
v 0.056472 0.523702 0.170596
v 0.063061 0.492635 0.062459
v 0.001561 0.492643 0.062440
v 0.001568 0.523669 0.062429
v 0.063066 0.648592 0.104041
v 0.063065 0.652707 0.109081
v 0.041746 0.632981 0.105177
v 0.001566 0.632985 0.098824
v 0.063062 0.660875 0.124199
v 0.001566 0.660882 0.124180
v 0.001560 0.652725 0.139304
v 0.063056 0.652718 0.139323
v 0.063050 0.632995 0.149575
v 0.063054 0.648607 0.144365
v 0.001569 0.652714 0.109062
v 0.001550 0.633002 0.149556
v 0.001558 0.648614 0.144346
v 0.001566 0.648600 0.104022
v 0.056574 0.492552 -0.172423
v 0.056546 0.492585 -0.079723
v 0.001605 0.492592 -0.079740
v 0.001633 0.492558 -0.172440
v 0.063100 0.492590 -0.064271
v 0.063104 0.523617 -0.064282
v 0.001608 0.523624 -0.064301
v 0.001604 0.492597 -0.064290
v 0.041812 0.632905 -0.107103
v 0.041817 0.644044 -0.126132
v 0.056578 0.644043 -0.126127
v 0.056571 0.632903 -0.107098
v 0.063143 0.632887 -0.151488
v 0.056583 0.632890 -0.145148
v 0.056578 0.523579 -0.172434
v 0.063142 0.523573 -0.187882
v 0.041819 0.523581 -0.172438
v 0.041790 0.523614 -0.079738
v 0.056549 0.523612 -0.079734
v 0.063138 0.492546 -0.187871
v 0.001638 0.492553 -0.187890
v 0.001646 0.523580 -0.187901
v 0.063144 0.648503 -0.146289
v 0.063143 0.652617 -0.141249
v 0.041824 0.632891 -0.145153
v 0.001643 0.632895 -0.151507
v 0.063139 0.660785 -0.126131
v 0.001643 0.660792 -0.126150
v 0.001637 0.652635 -0.111026
v 0.063133 0.652628 -0.111007
v 0.063128 0.632905 -0.100755
v 0.063131 0.648517 -0.105966
v 0.001647 0.652625 -0.141268
v 0.001628 0.632912 -0.100774
v 0.001635 0.648524 -0.105985
v 0.001644 0.648510 -0.146308
vt 0.1250 0.5000
vt 0.1250 0.3750
vt 0.2500 0.3750
vt 0.2500 0.5000
vt 0.6250 1.0000
vt 0.5000 1.0000
vt 0.5000 0.8750
vt 0.6250 0.8750
vt 0.6250 -0.0000
vt 0.5000 -0.0000
vt 0.5000 0.1250
vt 0.6250 0.1250
vt 0.2500 0.1250
vt 0.2500 -0.0000
vt 0.3750 -0.0000
vt 0.3750 0.1250
vt 0.6250 0.5000
vt 0.5000 0.5000
vt 0.5000 0.6250
vt 0.6250 0.6250
vt 0.6250 0.8750
vt 0.7500 0.8750
vt 0.7500 1.0000
vt 0.6250 1.0000
vt 0.1250 0.1250
vt 0.1250 0.2500
vt 0.2500 0.2500
vt 0.2500 0.1250
vt 0.7500 0.6250
vt 0.8750 0.6250
vt 0.8750 0.6250
vt 0.8750 0.7500
vt 0.2500 0.1250
vt 0.2500 0.0000
vt 0.3750 0.0000
vt 0.3750 0.1250
vt 0.5000 0.3750
vt 0.6250 0.3750
vt 0.6250 0.5000
vt 0.5000 0.5000
vt 0.5000 0.1250
vt 0.5000 0.2500
vt 0.3750 0.2500
vt 0.3750 0.1250
vt 0.7500 0.6250
vt 0.7500 0.5000
vt 0.6250 0.5000
vt 0.6250 0.6250
vt 0.3750 0.5000
vt 0.3750 0.6250
vt 0.2500 0.5000
vt 0.3750 0.1250
vt 0.3750 0.2500
vt 0.2500 0.2500
vt 0.2500 0.1250
vt 0.2500 0.5000
vt 0.3750 0.5000
vt 0.3750 0.7500
vt 0.2500 0.7500
vt 0.6250 0.1250
vt 0.7500 0.1250
vt 0.7500 0.2500
vt 0.6250 0.2500
vt 0.2500 0.7500
vt 0.3750 0.7500
vt 0.3750 0.8750
vt 0.2500 0.8750
vt 0.6250 0.7500
vt 0.7500 0.7500
vt 0.7500 0.8750
vt 0.6250 0.8750
vt 0.1250 0.7500
vt 0.1250 0.8750
vt 0.0000 0.8750
vt 0.0000 0.7500
vt 0.8750 0.1250
vt 0.8750 0.2500
vt 0.7500 0.2500
vt 0.7500 0.1250
vt 0.1250 0.3750
vt 0.2500 0.3750
vt 0.2500 0.5000
vt 0.1250 0.5000
vt 0.5000 0.5000
vt 0.3750 0.5000
vt 0.3750 0.3750
vt 0.5000 0.3750
vt 0.8750 0.6250
vt 0.8750 0.7500
vt 0.7500 0.7500
vt 0.6250 0.8750
vt 0.6250 0.7500
vt 0.7500 0.7500
vt 0.7500 0.8750
vt 0.3750 0.3750
vt 0.2500 0.3750
vt 0.3750 0.2500
vt 0.5000 -0.0000
vt 0.5000 0.1250
vt 0.3750 0.1250
vt 0.3750 0.0000
vt 0.8750 0.5000
vt 0.8750 0.6250
vt 0.7500 0.6250
vt 0.7500 0.5000
vt 0.3750 1.0000
vt 0.5000 0.8750
vt 0.5000 1.0000
vt 0.1250 0.5000
vt 0.0000 0.5000
vt 0.0000 0.3750
vt 0.1250 0.3750
vt 0.8750 1.0000
vt 0.8750 0.8750
vt 1.0000 0.8750
vt 1.0000 1.0000
vt 0.2500 0.8750
vt 0.3750 0.8750
vt 0.3750 1.0000
vt 0.2500 1.0000
vt 0.2500 0.2500
vt 0.2500 0.3750
vt 0.3750 0.2500
vt 0.1250 0.2500
vt 0.1250 0.3750
vt -0.0000 0.3750
vt -0.0000 0.2500
vt 0.5000 0.7500
vt 0.6250 0.7500
vt 0.6250 0.8750
vt 0.5000 0.8750
vt 0.6250 0.8750
vt 0.5000 0.8750
vt 0.5000 1.0000
vt 0.6250 1.0000
vt 0.7500 0.8750
vt 0.7500 0.7500
vt 0.1250 0.3750
vt 0.1250 0.2500
vt 0.2500 0.2500
vt 0.2500 0.3750
vt 0.7500 0.8750
vt 0.6250 0.8750
vt 0.6250 0.7500
vt 0.7500 0.7500
vt 0.5000 0.7500
vt 0.5000 0.6250
vt 0.6250 0.6250
vt 0.6250 0.7500
vt 0.3750 0.2500
vt 0.3750 0.1250
vt 0.5000 0.1250
vt 0.5000 0.2500
vt 0.7500 0.7500
vt 0.6250 0.7500
vt 0.6250 0.6250
vt 0.7500 0.6250
vt 0.7500 0.3750
vt 0.6250 0.3750
vt 0.6250 0.5000
vt 0.7500 0.5000
vt 0.6250 0.1250
vt 0.6250 0.2500
vt 0.5000 0.2500
vt 0.5000 0.1250
vt 0.8750 0.5000
vt 1.0000 0.5000
vt 1.0000 0.6250
vt 0.8750 0.6250
vt 0.8750 0.2500
vt 0.8750 0.1250
vt 1.0000 0.1250
vt 1.0000 0.2500
vt 0.5000 0.2500
vt 0.6250 0.2500
vt 0.6250 0.3750
vt 0.5000 0.3750
vt 0.3750 0.1250
vt 0.3750 0.2500
vt 0.2500 0.2500
vt 0.2500 0.1250
vt 0.6250 0.1250
vt 0.6250 0.0000
vt 0.7500 0.0000
vt 0.7500 0.1250
vt 0.5000 0.5000
vt 0.5000 0.6250
vt 0.3750 0.5000
vt 0.5000 0.0000
vt 0.5000 0.1250
vt 0.3750 0.1250
vt 0.3750 0.0000
vt 0.3750 0.5000
vt 0.5000 0.5000
vt 0.5000 0.7500
vt 0.3750 0.7500
vt 0.1250 0.1250
vt 0.2500 0.1250
vt 0.2500 -0.0000
vt 0.1250 -0.0000
vt 0.7500 0.8750
vt 0.8750 0.8750
vt 0.8750 1.0000
vt 0.7500 1.0000
vt 0.1250 0.8750
vt 0.2500 0.8750
vt 0.2500 1.0000
vt 0.1250 1.0000
vt 0.1250 0.8750
vt 0.1250 1.0000
vt 0.0000 1.0000
vt 0.0000 0.8750
vt 1.0000 0.0000
vt 1.0000 0.1250
vt 0.8750 0.1250
vt 0.8750 0.0000
vt 0.2500 0.7500
vt 0.1250 0.7500
vt 0.1250 0.8750
vt 0.2500 0.8750
vt 0.5000 0.8750
vt 0.3750 0.8750
vt 0.3750 0.7500
vt 0.5000 0.7500
vt 1.0000 0.6250
vt 1.0000 0.7500
vt 0.8750 0.7500
vt 0.8750 0.6250
vt 0.2500 1.0000
vt 0.2500 0.8750
vt 0.8750 0.7500
vt 1.0000 0.7500
vt 1.0000 0.8750
vt 0.7500 0.0000
vt 0.8750 0.0000
vt 0.8750 0.1250
vt 0.7500 0.1250
vt 0.8750 0.6250
vt 0.8750 0.7500
vt 0.7500 0.7500
vt 0.7500 0.6250
vt 0.3750 1.0000
vt 0.5000 0.8750
vt 0.5000 1.0000
vt 0.6250 0.3750
vt 0.7500 0.3750
vt 0.7500 0.2500
vt 0.6250 0.2500
vt 0.7500 0.8750
vt 0.7500 0.7500
vt 0.8750 0.8750
vt 0.2500 0.3750
vt 0.3750 0.3750
vt 0.3750 0.5000
vt 0.2500 0.5000
vt 0.8750 0.8750
vt 0.8750 0.7500
vt 1.0000 0.8750
vt 0.1250 0.3750
vt 0.1250 0.5000
vt 0.0000 0.5000
vt 0.0000 0.3750
vt 0.1250 0.7500
vt 0.2500 0.7500
vt 0.2500 0.8750
vt 0.1250 0.8750
vt 0.1250 0.8750
vt 0.1250 1.0000
vt -0.0000 0.8750
vt -0.0000 0.7500
vn -0.0001 -1.0000 0.0004
vn -0.0003 0.0004 1.0000
vn 0.0001 -0.8630 -0.5052
vn 0.8470 -0.1487 0.5103
vn 0.0001 1.0000 -0.0004
vn 0.0003 -0.0004 -1.0000
vn 0.0003 -0.2429 -0.9701
vn 0.7809 -0.2877 0.5545
vn 1.0000 -0.0001 0.0003
vn 0.9204 0.0000 0.3911
vn -0.0003 -0.8626 0.5058
vn 1.0000 0.0001 0.0003
vn 0.9206 -0.0002 -0.3905
vn -0.0003 -0.2422 0.9702
vn -1.0000 0.0002 -0.0003
vn -1.0000 0.0002 -0.0002
vn 0.0003 0.3159 -0.9488
vn -0.0000 0.8802 0.4747
vn 0.7813 -0.2881 -0.5538
vn 0.0002 0.8798 -0.4753
vn -1.0000 0.0001 -0.0003
vn -1.0000 0.0003 -0.0003
vn 0.9153 -0.3505 0.1986
vn 0.8473 -0.1490 -0.5097
vn 0.9154 -0.3506 -0.1978
vn -1.0000 0.0005 -0.0003
vn -0.0003 0.3165 0.9486
vn -1.0000 0.0001 -0.0001
vn -0.0003 0.3166 0.9486
vn -0.0001 0.7751 0.6319
vn 0.0003 0.7746 -0.6324
vn 0.7809 -0.2877 0.5544
vn 0.7812 -0.2881 -0.5538
vn -0.0001 0.7750 0.6320
vn 0.0003 0.7746 -0.6325
usemtl Material.001
s 1
f 1/1/1 2/2/1 3/3/1 4/4/1
f 5/5/2 6/6/2 7/7/2 8/8/2
f 9/9/3 10/10/3 11/11/3 12/12/3
f 13/13/4 14/14/4 15/15/4 16/16/4
f 15/17/5 17/18/5 18/19/5 19/20/5
f 16/21/6 20/22/6 21/23/6 22/24/6
f 12/25/7 19/26/7 18/27/7 9/28/7
f 14/29/8 13/30/8 23/31/8 24/32/8
f 15/33/9 19/34/9 2/35/9 1/36/9
f 1/37/1 4/38/1 21/39/1 20/40/1
f 1/41/10 20/42/10 16/43/10 15/44/10
f 10/45/11 25/46/11 14/47/11 11/48/11
f 9/49/9 25/50/9 10/51/12
f 5/52/13 2/53/13 19/54/13 6/55/13
f 9/56/9 18/57/9 17/58/9 25/59/9
f 14/60/14 25/61/14 17/62/14 15/63/14
f 22/64/15 4/65/15 3/66/16 7/67/15
f 13/68/17 16/69/17 22/70/17 26/71/17
f 27/72/18 28/73/18 29/74/18 30/75/18
f 31/76/19 12/77/19 30/78/19 32/79/19
f 27/80/20 24/81/20 33/82/20 28/83/20
f 34/84/21 35/85/22 36/86/22 26/87/21
f 24/88/23 27/89/23 11/90/23 14/29/23
f 36/91/17 23/92/17 13/93/17 26/94/17
f 22/95/15 21/96/15 4/97/15
f 6/98/24 19/99/24 12/100/24 31/101/24
f 27/102/25 30/103/25 12/104/25 11/105/25
f 29/106/26 28/107/21 33/108/15
f 35/109/27 34/110/27 31/111/27 32/112/27
f 34/113/21 26/114/21 22/115/15 7/116/15
f 33/117/15 36/118/22 35/119/22 29/120/26
f 8/121/28 7/122/15 3/123/16
f 8/124/1 3/125/1 2/126/1 5/127/1
f 34/128/27 7/129/29 6/130/29 31/131/27
f 32/132/30 30/133/30 29/134/30 35/135/30
f 36/91/31 33/136/31 24/137/31 23/92/31
f 37/138/1 38/139/1 39/140/1 40/141/1
f 41/142/2 42/143/2 43/144/2 44/145/2
f 45/146/3 46/147/3 47/148/3 48/149/3
f 49/150/4 50/151/4 51/152/4 52/153/4
f 51/154/5 53/155/5 54/156/5 55/157/5
f 52/158/6 56/159/6 57/160/6 58/161/6
f 48/162/7 55/163/7 54/164/7 45/165/7
f 50/166/32 49/167/32 59/168/32 60/169/32
f 51/170/9 55/171/9 38/172/9 37/173/9
f 37/174/1 40/175/1 57/176/1 56/177/1
f 37/178/10 56/179/10 52/180/10 51/181/10
f 46/182/11 61/183/11 50/184/11 47/185/11
f 45/186/9 61/187/9 46/188/12
f 41/189/13 38/190/13 55/191/13 42/192/13
f 45/193/9 54/194/9 53/195/9 61/196/9
f 50/197/14 61/198/14 53/199/14 51/200/14
f 58/201/15 40/202/15 39/203/16 43/204/15
f 49/205/17 52/206/17 58/207/17 62/208/17
f 63/209/18 64/210/18 65/211/18 66/212/18
f 67/213/33 48/214/33 66/215/33 68/216/33
f 63/217/20 60/218/20 69/219/20 64/220/20
f 70/221/21 71/222/22 72/223/22 62/224/21
f 60/225/23 63/226/23 47/227/23 50/228/23
f 72/229/17 59/230/17 49/205/17 62/208/17
f 58/231/15 57/232/15 40/233/15
f 42/234/24 55/235/24 48/236/24 67/237/24
f 63/238/25 66/239/25 48/240/25 47/241/25
f 65/242/26 64/243/21 69/244/26
f 71/245/29 70/246/29 67/247/29 68/248/29
f 70/249/21 62/250/21 58/231/15 43/251/15
f 69/252/26 72/253/22 71/254/22 65/255/26
f 44/256/28 43/257/15 39/258/16
f 44/259/1 39/260/1 38/261/1 41/262/1
f 70/263/29 43/264/29 42/265/29 67/266/29
f 68/267/34 66/212/34 65/211/34 71/268/34
f 72/269/35 69/219/35 60/218/35 59/270/35
